<svg xmlns="http://www.w3.org/2000/svg" xmlns:xlink="http://www.w3.org/1999/xlink" version="1.1" width="256" height="256" viewBox="0 0 256 256" xml:space="preserve">
<g style="stroke: none; stroke-width: 0; stroke-dasharray: none; stroke-linecap: butt; stroke-linejoin: miter; stroke-miterlimit: 10; fill: none; fill-rule: nonzero; opacity: 1;" transform="translate(27.094163424124503 27.094163424124474) scale(2.23 2.23)">
	<path d="M 90 82.839 c 0 1.792 -0.684 3.583 -2.05 4.95 c -2.734 2.734 -7.166 2.734 -9.9 0 L 45 54.738 l -33.05 33.05 c -2.733 2.734 -7.166 2.734 -9.899 0 c -2.733 -2.733 -2.733 -7.166 0 -9.899 l 38 -38 c 2.733 -2.733 7.166 -2.733 9.9 0 l 38 38 C 89.316 79.256 90 81.048 90 82.839 z" style="stroke: none; stroke-width: 1; stroke-dasharray: none; stroke-linecap: butt; stroke-linejoin: miter; stroke-miterlimit: 10; fill: rgb(32,124,196); fill-rule: nonzero; opacity: 1;" transform=" matrix(1 0 0 1 0 0) " stroke-linecap="round"/>
	<path d="M 90 45.161 c 0 1.792 -0.684 3.583 -2.05 4.95 c -2.734 2.734 -7.166 2.734 -9.9 0 L 45 17.061 l -33.05 33.05 c -2.733 2.734 -7.166 2.734 -9.899 0 c -2.732 -2.733 -2.733 -7.166 0 -9.9 l 38 -38 c 2.733 -2.733 7.166 -2.733 9.9 0 l 38 38 C 89.316 41.578 90 43.37 90 45.161 z" style="stroke: none; stroke-width: 1; stroke-dasharray: none; stroke-linecap: butt; stroke-linejoin: miter; stroke-miterlimit: 10; fill: rgb(32,124,196); fill-rule: nonzero; opacity: 1;" transform=" matrix(1 0 0 1 0 0) " stroke-linecap="round"/>
</g>
</svg>