<svg xmlns="http://www.w3.org/2000/svg" xmlns:xlink="http://www.w3.org/1999/xlink" version="1.1" width="256" height="256" viewBox="0 0 256 256" xml:space="preserve">
<g style="stroke: none; stroke-width: 0; stroke-dasharray: none; stroke-linecap: butt; stroke-linejoin: miter; stroke-miterlimit: 10; fill: none; fill-rule: nonzero; opacity: 1;" transform="translate(9.164202334630346 9.164202334630318) scale(2.63 2.63)">
	<path d="M 87.878 37.043 h -6.768 c -1.712 0 -3.253 -1.04 -3.894 -2.628 l -1.944 -4.818 c -0.63 -1.562 -0.266 -3.349 0.925 -4.54 l 4.749 -4.749 c 0.825 -0.825 0.825 -2.176 0 -3.001 l -8.252 -8.252 c -0.825 -0.825 -2.176 -0.825 -3.001 0 l -4.786 4.786 c -1.211 1.211 -3.036 1.565 -4.611 0.895 l -4.781 -2.032 c -1.55 -0.659 -2.556 -2.18 -2.556 -3.864 V 2.122 C 52.957 0.955 52.002 0 50.835 0 h -11.67 c -1.167 0 -2.122 0.955 -2.122 2.122 v 6.768 c 0 1.712 -1.04 3.253 -2.628 3.894 l -4.818 1.944 c -1.562 0.63 -3.349 0.266 -4.54 -0.925 l -4.749 -4.749 c -0.825 -0.825 -2.176 -0.825 -3.001 0 l -8.252 8.252 c -0.825 0.825 -0.825 2.176 0 3.001 l 4.786 4.786 c 1.211 1.211 1.565 3.036 0.895 4.611 l -2.032 4.782 c -0.659 1.55 -2.18 2.556 -3.864 2.556 H 2.122 C 0.955 37.043 0 37.998 0 39.165 v 11.67 c 0 1.167 0.955 2.122 2.122 2.122 h 6.768 c 1.712 0 3.253 1.04 3.894 2.628 l 1.944 4.818 c 0.63 1.562 0.266 3.349 -0.925 4.54 l -4.749 4.749 c -0.825 0.825 -0.825 2.176 0 3.001 l 8.252 8.252 c 0.825 0.825 2.176 0.825 3.001 0 l 4.786 -4.786 c 1.211 -1.211 3.036 -1.565 4.611 -0.895 l 4.781 2.032 c 1.55 0.659 2.556 2.18 2.556 3.864 v 6.717 c 0 1.167 0.955 2.122 2.122 2.122 h 11.67 c 1.167 0 2.122 -0.955 2.122 -2.122 v -6.768 c 0 -1.712 1.04 -3.253 2.628 -3.894 l 4.818 -1.944 c 1.562 -0.63 3.349 -0.266 4.54 0.925 l 4.749 4.75 c 0.825 0.825 2.176 0.825 3.001 0 l 8.252 -8.252 c 0.825 -0.825 0.825 -2.176 0 -3.001 l -4.786 -4.786 c -1.211 -1.211 -1.565 -3.036 -0.895 -4.611 l 2.032 -4.782 c 0.659 -1.55 2.18 -2.556 3.864 -2.556 h 6.717 c 1.167 0 2.122 -0.955 2.122 -2.122 v -11.67 C 90 37.998 89.045 37.043 87.878 37.043 z M 45 66.931 c -12.112 0 -21.931 -9.819 -21.931 -21.931 S 32.888 23.069 45 23.069 S 66.931 32.888 66.931 45 S 57.112 66.931 45 66.931 z" style="stroke: none; stroke-width: 1; stroke-dasharray: none; stroke-linecap: butt; stroke-linejoin: miter; stroke-miterlimit: 10; fill: rgb(240,84,37); fill-rule: nonzero; opacity: 1;" transform=" matrix(1 0 0 1 0 0) " stroke-linecap="round"/>
	<path d="M 45 28.623 c 9.03 0 16.377 7.347 16.377 16.377 S 54.03 61.377 45 61.377 S 28.623 54.03 28.623 45 S 35.97 28.623 45 28.623 M 45 21.315 c -13.081 0 -23.685 10.604 -23.685 23.685 S 31.919 68.685 45 68.685 S 68.685 58.081 68.685 45 S 58.081 21.315 45 21.315 L 45 21.315 z" style="stroke: none; stroke-width: 1; stroke-dasharray: none; stroke-linecap: butt; stroke-linejoin: miter; stroke-miterlimit: 10; fill: rgb(97,94,102); fill-rule: nonzero; opacity: 1;" transform=" matrix(1 0 0 1 0 0) " stroke-linecap="round"/>
</g>
</svg>