<svg xmlns="http://www.w3.org/2000/svg" xmlns:xlink="http://www.w3.org/1999/xlink" version="1.1" width="256" height="256" viewBox="0 0 256 256" xml:space="preserve">
<g style="stroke: none; stroke-width: 0; stroke-dasharray: none; stroke-linecap: butt; stroke-linejoin: miter; stroke-miterlimit: 10; fill: none; fill-rule: nonzero; opacity: 1;" transform="translate(9.164202334630346 9.164202334630318) scale(2.63 2.63)">
	<circle cx="45" cy="45" r="45" style="stroke: none; stroke-width: 1; stroke-dasharray: none; stroke-linecap: butt; stroke-linejoin: miter; stroke-miterlimit: 10; fill: rgb(230,62,50); fill-rule: nonzero; opacity: 1;" transform="  matrix(1 0 0 1 0 0) "/>
	<path d="M 27.169 64.83 c -0.512 0 -1.024 -0.195 -1.414 -0.586 c -0.781 -0.781 -0.781 -2.047 0 -2.828 l 35.661 -35.661 c 0.781 -0.781 2.047 -0.781 2.828 0 c 0.781 0.781 0.781 2.047 0 2.828 L 28.583 64.244 C 28.193 64.635 27.681 64.83 27.169 64.83 z" style="stroke: none; stroke-width: 1; stroke-dasharray: none; stroke-linecap: butt; stroke-linejoin: miter; stroke-miterlimit: 10; fill: rgb(255,255,255); fill-rule: nonzero; opacity: 1;" transform=" matrix(1 0 0 1 0 0) " stroke-linecap="round"/>
	<path d="M 62.83 64.83 c -0.512 0 -1.023 -0.195 -1.414 -0.586 L 25.755 28.583 c -0.781 -0.781 -0.781 -2.047 0 -2.828 c 0.78 -0.781 2.048 -0.781 2.828 0 l 35.661 35.661 c 0.781 0.781 0.781 2.047 0 2.828 C 63.854 64.635 63.342 64.83 62.83 64.83 z" style="stroke: none; stroke-width: 1; stroke-dasharray: none; stroke-linecap: butt; stroke-linejoin: miter; stroke-miterlimit: 10; fill: rgb(255,255,255); fill-rule: nonzero; opacity: 1;" transform=" matrix(1 0 0 1 0 0) " stroke-linecap="round"/>
</g>
</svg>